<svg width="185" height="55" viewBox="0 0 185 55" fill="none" xmlns="http://www.w3.org/2000/svg">
  <path d="M53.5268 0H1.46649C0.656569 0 0 0.656649 0 1.46667V53.5333C0 54.3434 0.656569 55 1.46649 55H53.5268C54.3368 55 54.9933 54.3434 54.9933 53.5333V1.46667C54.9933 0.656649 54.3368 0 53.5268 0Z" fill="url(#paint0_linear)"/>
  <path d="M38.4257 8.84955C38.3578 8.39855 37.9656 8.06305 37.5128 8.06855C32.2719 8.06305 27.6616 8.58555 21.9423 9.83588C9.59634 12.5327 2.68367 16.3094 0 22.7462V39.9887C1.05404 44.5061 2.40138 48.0334 4.11533 50.7486L4.25282 50.9814C4.25282 50.9814 4.28765 51.0309 4.29865 51.051C4.29865 51.051 4.70743 51.7111 5.40034 52.5562C8.68345 50.5836 13.6218 47.7199 17.0076 45.8169C16.8665 45.6959 16.7271 45.562 16.5842 45.4246C16.5273 45.3677 16.465 45.3109 16.4082 45.2541C16.3349 45.1807 16.267 45.0982 16.1919 45.0194C14.4742 43.1329 13.2442 40.3224 12.3423 36.1974C10.0839 25.8592 13.0279 21.736 24.4574 19.239C28.1163 18.4397 35.9858 17.8714 38.7905 17.6807C39.3276 17.6459 39.718 17.1509 39.6337 16.6247L38.4257 8.84771H38.4275L38.4257 8.84955Z" fill="#7C50FF"/>
  <path d="M42.8251 25.3019L24.8918 29.2198C24.5618 29.2931 24.351 29.6194 24.4244 29.9494L26.1127 37.6861C26.186 38.0161 26.5123 38.2269 26.8422 38.1536L33.9474 36.6008L34.006 36.8703C37.5916 35.0809 41.201 33.3393 44.8342 31.6343L43.5529 25.7713C43.4795 25.4413 43.1532 25.2304 42.8233 25.3038L42.8251 25.3019Z" fill="#7C50FF"/>
  <path d="M45.1129 32.9817C41.4741 34.6427 37.8702 36.333 34.2682 38.0674L35.621 44.2842C35.7163 44.7224 35.4854 45.1624 35.0729 45.3347L34.8346 45.43C32.7082 46.3082 30.6899 46.9517 28.6442 47.3972C24.626 48.2754 21.649 48.2167 19.2605 47.2102C18.8737 47.0507 18.5199 46.8692 18.1936 46.6694C18.0726 46.596 17.9388 46.5135 17.7903 46.4127C14.4559 48.2094 9.23705 51.1097 5.82196 53.0494C5.88979 53.1227 5.96311 53.2015 6.0346 53.2785C6.0676 53.317 6.10793 53.3574 6.14275 53.394C6.23258 53.4894 6.31507 53.5755 6.40489 53.669C6.44338 53.7039 6.48371 53.7442 6.51854 53.7827C6.64503 53.9074 6.76968 54.0375 6.90166 54.1585C6.90166 54.1585 6.95116 54.2044 6.97132 54.2227L7.18946 54.4152C7.42227 54.6187 7.6624 54.813 7.90804 54.9982H37.8427C41.2303 53.9129 44.5006 52.5507 48.2548 50.6935C48.6324 50.5047 48.8432 50.0794 48.7516 49.6669L45.1074 32.9799L45.1129 32.9817Z" fill="#7C50FF"/>
  <path d="M38.1342 6.97211C38.0664 6.52111 37.6741 6.18561 37.2213 6.19111C31.9805 6.18561 27.2565 6.72827 21.5354 7.97677C9.77232 10.5453 2.94031 14.0964 0 19.9943V39.7704C0.988047 43.5123 2.20707 46.5116 3.70655 48.8894L3.84403 49.1223C3.84403 49.1223 3.87886 49.1718 3.88986 49.1919C3.88986 49.1919 4.29865 49.8519 4.99156 50.6971C8.27466 48.7244 13.2131 45.8608 16.5988 43.9578C16.4577 43.8368 16.3184 43.7029 16.1754 43.5654C16.1185 43.5086 16.0562 43.4518 15.9994 43.3949C15.9261 43.3216 15.8582 43.2391 15.7831 43.1603C14.0655 41.2738 12.8354 38.4633 11.9336 34.3383C9.67516 24.0001 12.6191 19.8769 24.0486 17.3799C27.7075 16.5806 35.6925 15.9903 38.4972 15.7996C39.0343 15.7648 39.4247 15.2698 39.3404 14.7436L38.1324 6.96661H38.1342V6.97211Z" fill="url(#paint1_linear)"/>
  <path d="M42.4164 23.4428L24.483 27.3606C24.1531 27.434 23.9423 27.7603 24.0156 28.0903L25.7039 35.827C25.7772 36.157 26.1035 36.3678 26.4335 36.2945L33.5386 34.7416L33.5973 35.0111C37.1828 33.2218 40.7922 31.4801 44.4255 29.7751L43.1441 23.9121C43.0708 23.5821 42.7445 23.3713 42.4145 23.4446L42.4164 23.4428Z" fill="url(#paint2_linear)"/>
  <path d="M44.7059 31.1244C41.0672 32.7854 37.4633 34.4757 33.8613 36.2101L35.2141 42.4269C35.3094 42.8651 35.0784 43.3051 34.666 43.4774L34.4277 43.5727C32.3013 44.4509 30.283 45.0944 28.2373 45.5399C24.2191 46.4181 21.2421 46.3594 18.8536 45.3529C18.4668 45.1934 18.113 45.0119 17.7867 44.8121C17.6657 44.7387 17.5319 44.6562 17.3834 44.5554C14.049 46.3521 8.83012 49.2524 5.41504 51.1921C5.48286 51.2654 5.55619 51.3442 5.62768 51.4212C5.66068 51.4597 5.701 51.5001 5.73583 51.5367C5.82566 51.6321 5.90815 51.7182 5.99797 51.8117C6.0383 51.8466 6.07679 51.8869 6.11162 51.9254C6.23811 52.0501 6.36276 52.1802 6.49474 52.3012C6.49474 52.3012 6.54424 52.3471 6.5644 52.3654L6.78254 52.5579C7.94656 53.5736 9.26091 54.3876 10.7494 54.9981H30.393C30.5012 54.9742 30.6093 54.9522 30.7193 54.9284C36.8822 53.5827 41.7198 51.8649 47.8516 48.8344C48.2292 48.6456 48.44 48.2202 48.3483 47.8077L44.7041 31.1207H44.7023L44.7059 31.1244Z" fill="url(#paint3_linear)"/>
  <text x="66" y="23" fill="white" font-family="Arial, Helvetica, sans-serif" font-size="16" font-weight="900" letter-spacing="-0.5">GAIMIN</text>
  <text x="66" y="44" fill="white" font-family="Arial, Helvetica, sans-serif" font-size="20" font-weight="800" letter-spacing="-0.7">Avatar AI</text>
  <defs>
    <linearGradient id="paint0_linear" x1="54.2106" y1="0.782832" x2="0.0704246" y2="54.9183" gradientUnits="userSpaceOnUse">
      <stop offset="0.18" stop-color="#6B48D5"/>
      <stop offset="0.83" stop-color="#1D0A5F"/>
    </linearGradient>
    <linearGradient id="paint1_linear" x1="1.64613" y1="48.7666" x2="29.0433" y2="1.32282" gradientUnits="userSpaceOnUse">
      <stop stop-color="#BFB3FF"/>
      <stop offset="0.95" stop-color="white"/>
    </linearGradient>
    <linearGradient id="paint2_linear" x1="28.9063" y1="37.983" x2="38.6254" y2="21.1466" gradientUnits="userSpaceOnUse">
      <stop stop-color="#C1B5FF"/>
      <stop offset="0.76" stop-color="white"/>
    </linearGradient>
    <linearGradient id="paint3_linear" x1="20.507" y1="60.7877" x2="39.4044" y2="28.061" gradientUnits="userSpaceOnUse">
      <stop stop-color="#BFB3FF"/>
      <stop offset="1" stop-color="#FCFCFF"/>
    </linearGradient>
  </defs>
</svg>
